<?xml version="1.0" standalone="no"?>
<!DOCTYPE svg PUBLIC "-//W3C//DTD SVG 20010904//EN"
 "http://www.w3.org/TR/2001/REC-SVG-20010904/DTD/svg10.dtd">
<svg version="1.0" xmlns="http://www.w3.org/2000/svg"
 width="500.000000pt" height="500.000000pt" viewBox="0 0 500.000000 500.000000"
 preserveAspectRatio="xMidYMid meet">
<metadata>
Created by potrace 1.11, written by Peter Selinger 2001-2013
</metadata>
<g transform="translate(0.000000,500.000000) scale(0.100000,-0.100000)"
fill="#000000" stroke="none">
<path d="M2012 4419 c-159 -30 -289 -161 -294 -296 -1 -30 26 -160 72 -348 77
-321 102 -388 231 -616 49 -87 50 -89 33 -114 -25 -39 -23 -115 5 -154 l22
-31 -36 -60 c-20 -33 -42 -60 -49 -60 -7 0 -24 40 -39 95 -110 390 -326 741
-546 889 -113 76 -207 84 -326 27 -96 -45 -140 -93 -275 -300 -69 -105 -172
-262 -229 -349 -57 -86 -114 -181 -127 -209 -64 -144 -45 -311 45 -399 40 -39
10 -24 461 -224 211 -94 388 -174 393 -179 4 -4 10 -19 12 -34 5 -22 -5 -34
-65 -85 -39 -33 -126 -97 -193 -142 -168 -114 -194 -136 -222 -184 -29 -50
-44 -143 -33 -206 12 -69 66 -168 122 -225 46 -46 146 -138 280 -256 27 -24
59 -53 70 -64 12 -11 60 -54 106 -95 47 -41 96 -85 110 -98 145 -139 368 -169
487 -67 51 44 204 291 263 425 21 48 24 71 24 170 1 120 0 129 -29 273 -18 88
-18 88 3 103 12 8 28 21 36 29 8 8 18 15 23 15 14 0 237 -100 248 -111 10 -10
11 -14 14 -44 0 -8 16 -29 34 -48 32 -31 34 -39 41 -118 8 -113 17 -147 59
-221 37 -68 70 -129 166 -308 97 -181 168 -232 316 -225 108 5 201 48 300 139
22 21 69 63 104 94 36 31 79 71 97 87 27 26 138 125 194 175 135 119 179 164
212 215 85 131 93 280 19 382 -20 27 -108 94 -277 211 -248 170 -344 247 -328
262 5 5 27 11 49 14 52 8 70 14 320 103 116 41 233 83 260 93 292 101 306 108
350 166 44 58 64 129 61 214 -5 124 -16 148 -198 423 -54 81 -98 150 -98 153
0 3 -5 10 -11 17 -6 7 -53 77 -105 156 -51 80 -111 162 -131 183 -138 141
-352 166 -457 53 -11 -12 -79 -84 -151 -159 -210 -222 -216 -229 -240 -276
-91 -182 -120 -457 -70 -668 25 -101 38 -139 85 -234 25 -50 27 -58 14 -77
-14 -19 -17 -19 -67 -5 -28 8 -82 27 -119 40 -58 22 -68 30 -78 59 -6 18 -22
44 -36 58 -25 25 -26 47 -9 127 6 29 8 36 29 150 22 124 22 122 55 280 28 138
125 554 156 670 53 202 95 397 95 442 -1 132 -113 249 -281 293 -56 15 -881
18 -957 4z m683 -260 c83 -16 200 -75 257 -129 79 -76 114 -182 95 -290 -3
-19 -25 -111 -47 -205 -40 -164 -154 -671 -164 -728 -3 -15 -10 -53 -16 -85
-5 -31 -12 -66 -14 -77 -27 -151 -27 -151 -49 -152 -46 -4 -239 161 -363 309
l-72 87 13 37 c30 89 -28 182 -127 198 -15 3 -32 7 -37 10 -9 6 -120 195 -159
272 -31 60 -73 239 -76 319 -7 176 84 317 257 397 56 26 104 38 182 44 39 4
71 8 73 9 7 6 196 -6 247 -16z m-1285 -665 c202 -60 312 -229 448 -687 28 -94
29 -95 9 -121 -21 -29 -25 -61 -14 -116 6 -32 2 -40 -46 -95 -29 -32 -93 -102
-143 -154 l-91 -94 -55 -2 c-31 -1 -67 -8 -80 -17 -21 -14 -27 -13 -78 11
-123 59 -390 181 -460 211 -84 36 -117 63 -160 130 -82 128 -97 314 -37 455
35 82 206 300 288 367 136 110 288 151 419 112z m2426 -108 c79 -25 168 -89
284 -206 183 -183 250 -310 246 -465 -1 -60 -8 -91 -24 -122 -22 -43 -75 -90
-108 -98 -11 -2 -150 -51 -311 -109 -160 -57 -311 -107 -335 -111 -40 -6 -45
-4 -62 23 -29 44 -77 72 -136 79 l-53 6 -37 81 c-118 252 -127 493 -25 712 19
41 45 84 57 95 68 57 182 117 253 132 43 9 203 -1 251 -17z m-1577 -372 c18
-39 13 -73 -14 -99 -59 -60 -156 -1 -134 81 18 65 120 78 148 18z m21 -251
c68 -88 216 -238 303 -308 78 -63 79 -63 82 -115 4 -51 42 -120 66 -120 6 0 8
-3 6 -8 -9 -14 -42 -310 -53 -471 -7 -108 -17 -118 -89 -86 -207 92 -215 97
-211 122 7 38 -21 115 -55 152 -32 33 -100 70 -129 71 -12 0 -22 26 -39 100
-12 55 -41 170 -65 256 l-43 155 21 27 c15 19 21 42 22 82 1 48 8 65 48 128
59 92 74 94 136 15z m-262 -103 c38 -36 24 -90 -28 -108 -26 -9 -34 -8 -54 11
-35 32 -40 59 -15 90 25 33 66 35 97 7z m-38 -265 c36 -136 102 -407 98 -409
-2 -1 -20 -14 -40 -29 -20 -15 -40 -27 -44 -27 -3 0 -77 32 -163 71 -155 70
-158 71 -168 109 -10 39 -10 39 55 107 35 37 103 112 149 166 47 54 87 96 89
95 1 -2 12 -39 24 -83z m874 23 c58 -26 55 -112 -3 -143 -27 -14 -35 -14 -66
-1 -59 25 -69 91 -20 134 29 25 52 27 89 10z m572 -140 c27 -13 44 -49 44 -92
0 -66 -83 -109 -145 -76 -27 14 -55 64 -50 89 2 9 4 21 4 27 1 18 51 63 74 66
25 4 42 1 73 -14z m-436 -59 c30 -12 86 -29 125 -39 45 -11 73 -24 79 -36 54
-101 104 -134 193 -129 29 1 59 7 66 14 11 8 27 -1 73 -42 75 -67 115 -95 189
-136 105 -58 183 -122 207 -170 28 -57 29 -164 4 -240 -21 -60 -73 -154 -104
-186 -94 -97 -359 -288 -440 -317 -21 -7 -79 -13 -132 -13 -82 0 -103 4 -153
27 -32 15 -73 40 -92 55 -81 67 -150 190 -186 331 l-20 82 25 33 c34 45 42 97
20 143 -9 20 -23 38 -31 41 -10 4 -12 23 -8 82 5 87 14 180 20 231 3 19 7 60
10 90 3 30 7 64 9 75 3 11 5 32 5 47 1 20 11 34 39 52 20 14 39 25 42 25 3 1
30 -8 60 -20z m-1417 -87 c64 -65 -12 -169 -94 -127 -54 29 -61 96 -13 134 30
23 80 20 107 -7z m228 -235 l154 -69 -1 -46 c-2 -52 8 -81 44 -130 30 -42 63
-63 120 -77 41 -11 47 -16 54 -46 36 -160 28 -316 -17 -386 -10 -15 -49 -58
-86 -96 -209 -209 -460 -172 -788 118 -124 108 -173 214 -168 360 5 124 33
174 150 269 51 40 110 90 132 110 23 21 46 34 55 31 48 -19 96 -16 140 8 25
14 48 25 51 24 3 -1 75 -33 160 -70z m445 -31 c19 -19 35 -43 35 -55 1 -12 2
-27 3 -33 7 -44 -59 -108 -111 -108 -96 0 -154 97 -104 174 26 39 57 55 105
56 30 0 45 -7 72 -34z m536 -286 c26 -32 22 -65 -8 -89 -33 -26 -55 -26 -85
-3 -15 13 -22 30 -22 52 0 63 75 89 115 40z"/>
</g>
</svg>
